<svg xmlns="http://www.w3.org/2000/svg" width="20" height="21" viewBox="0 0 20 21" fill="none">
  <path d="M17.7981 5.71563L17.7919 5.72266L12.5005 11.3727V15.7078C12.5008 15.914 12.4501 16.117 12.3529 16.2989C12.2557 16.4807 12.115 16.6357 11.9434 16.75L9.44344 18.4172C9.25504 18.5427 9.0361 18.6147 8.80999 18.6254C8.58388 18.6362 8.35909 18.5854 8.15961 18.4784C7.96013 18.3714 7.79345 18.2122 7.67736 18.0179C7.56127 17.8236 7.50013 17.6014 7.50047 17.375L7.50047 11.3727L2.20906 5.72266L2.20281 5.71563C2.04011 5.53657 1.93287 5.31416 1.89409 5.07536C1.85531 4.83656 1.88667 4.59163 1.98435 4.3703C2.08203 4.14897 2.24184 3.96074 2.44439 3.82844C2.64695 3.69615 2.88354 3.62548 3.12547 3.625L16.8755 3.625C17.1176 3.62502 17.3545 3.69537 17.5574 3.82749C17.7603 3.9596 17.9205 4.14781 18.0185 4.36923C18.1164 4.59065 18.148 4.83576 18.1093 5.07478C18.0706 5.31379 17.9633 5.53643 17.8005 5.71563H17.7981Z" fill="#201F24"/>
</svg>