<svg xmlns="http://www.w3.org/2000/svg" width="16" height="16" viewBox="0 0 16 16" fill="none">
  <path d="M10.1466 12.8535L5.14656 7.85353C5.10007 7.8071 5.06319 7.75195 5.03803 7.69125C5.01286 7.63056 4.99991 7.56549 4.99991 7.49978C4.99991 7.43408 5.01286 7.36901 5.03803 7.30831C5.06319 7.24762 5.10007 7.19247 5.14656 7.14603L10.1466 2.14603C10.2165 2.07603 10.3056 2.02834 10.4027 2.00902C10.4997 1.98969 10.6003 1.9996 10.6917 2.03747C10.7831 2.07535 10.8612 2.1395 10.9162 2.22179C10.9711 2.30409 11.0004 2.40084 11.0003 2.49978L11.0003 12.4998C11.0004 12.5987 10.9711 12.6955 10.9162 12.7778C10.8612 12.8601 10.7831 12.9242 10.6917 12.9621C10.6003 13 10.4997 13.0099 10.4027 12.9905C10.3056 12.9712 10.2165 12.9235 10.1466 12.8535Z" fill="#696868"/>
</svg>