<svg xmlns="http://www.w3.org/2000/svg" width="16" height="16" viewBox="0 0 16 16" fill="none">
  <path d="M5.85351 3.14647L10.8535 8.14647C10.9 8.1929 10.9369 8.24805 10.962 8.30875C10.9872 8.36944 11.0001 8.43451 11.0001 8.50022C11.0001 8.56592 10.9872 8.63099 10.962 8.69169C10.9369 8.75238 10.9 8.80753 10.8535 8.85397L5.85351 13.854C5.78358 13.924 5.69445 13.9717 5.59741 13.991C5.50037 14.0103 5.39977 14.0004 5.30836 13.9625C5.21695 13.9247 5.13883 13.8605 5.0839 13.7782C5.02896 13.6959 4.99968 13.5992 4.99976 13.5002L4.99976 3.50022C4.99968 3.40127 5.02896 3.30452 5.0839 3.22222C5.13883 3.13993 5.21695 3.07578 5.30836 3.0379C5.39977 3.00003 5.50037 2.99013 5.59741 3.00945C5.69445 3.02878 5.78358 3.07646 5.85351 3.14647Z" fill="#696868"/>
</svg>