<svg xmlns="http://www.w3.org/2000/svg" width="24" height="25" viewBox="0 0 24 25" fill="none">
<path d="M15.0001 8.26002L15.0001 17.26C15.0001 17.4589 14.9211 17.6497 14.7804 17.7904C14.6398 17.931 14.449 18.01 14.2501 18.01H12.0001L12.0001 21.76C12.0002 21.9084 11.9563 22.0536 11.8739 22.177C11.7915 22.3005 11.6743 22.3967 11.5372 22.4535C11.4001 22.5103 11.2492 22.5252 11.1036 22.4962C10.9581 22.4672 10.8244 22.3957 10.7195 22.2906L1.71948 13.2906C1.64974 13.221 1.59443 13.1383 1.55668 13.0472C1.51894 12.9562 1.49951 12.8586 1.49951 12.76C1.49951 12.6615 1.51894 12.5639 1.55668 12.4728C1.59443 12.3818 1.64974 12.2991 1.71948 12.2294L10.7195 3.2294C10.8244 3.12439 10.9581 3.05286 11.1036 3.02387C11.2492 2.99489 11.4001 3.00974 11.5372 3.06655C11.6743 3.12337 11.7915 3.21959 11.8739 3.34303C11.9563 3.46648 12.0002 3.6116 12.0001 3.76002V7.51002H14.2501C14.449 7.51002 14.6398 7.58904 14.7804 7.72969C14.9211 7.87034 15.0001 8.06111 15.0001 8.26002ZM17.2501 7.51002C17.0512 7.51002 16.8604 7.58904 16.7198 7.72969C16.5791 7.87034 16.5001 8.06111 16.5001 8.26002V17.26C16.5001 17.4589 16.5791 17.6497 16.7198 17.7904C16.8604 17.931 17.0512 18.01 17.2501 18.01C17.449 18.01 17.6398 17.931 17.7804 17.7904C17.9211 17.6497 18.0001 17.4589 18.0001 17.26L18.0001 8.26002C18.0001 8.06111 17.9211 7.87034 17.7804 7.72969C17.6398 7.58904 17.449 7.51002 17.2501 7.51002ZM20.2501 7.51002C20.0512 7.51002 19.8604 7.58904 19.7198 7.72969C19.5791 7.87034 19.5001 8.06111 19.5001 8.26002L19.5001 17.26C19.5001 17.4589 19.5791 17.6497 19.7198 17.7904C19.8604 17.931 20.0512 18.01 20.2501 18.01C20.449 18.01 20.6398 17.931 20.7804 17.7904C20.9211 17.6497 21.0001 17.4589 21.0001 17.26L21.0001 8.26002C21.0001 8.06111 20.9211 7.87034 20.7804 7.72969C20.6398 7.58904 20.449 7.51002 20.2501 7.51002Z" fill="#B3B3B3"/>
</svg>